<svg width="18" height="18" viewBox="0 0 18 18" fill="none" xmlns="http://www.w3.org/2000/svg">
<path d="M15.1875 15.75C15.1136 15.7501 15.0404 15.7356 14.9722 15.7073C14.904 15.679 14.842 15.6375 14.7899 15.5851L2.41488 3.21011C2.31385 3.10376 2.25835 2.96215 2.26023 2.81548C2.26211 2.6688 2.32121 2.52866 2.42494 2.42493C2.52866 2.3212 2.66881 2.2621 2.81548 2.26022C2.96216 2.25835 3.10377 2.31384 3.21012 2.41488L15.5851 14.7899C15.6637 14.8685 15.7173 14.9687 15.7389 15.0778C15.7606 15.1869 15.7495 15.3 15.7069 15.4027C15.6644 15.5055 15.5923 15.5933 15.4999 15.6551C15.4074 15.7169 15.2987 15.7499 15.1875 15.75V15.75ZM8.71875 11.1041L6.89801 9.28335C6.88757 9.27301 6.87416 9.26619 6.85965 9.26386C6.84515 9.26153 6.83027 9.2638 6.81712 9.27035C6.80398 9.27691 6.79321 9.28742 6.78634 9.30041C6.77947 9.3134 6.77684 9.32821 6.77883 9.34277C6.85233 9.81514 7.07413 10.2519 7.41216 10.5899C7.7502 10.928 8.18696 11.1498 8.65933 11.2233C8.67389 11.2253 8.6887 11.2226 8.70169 11.2158C8.71468 11.2089 8.72519 11.1981 8.73175 11.185C8.7383 11.1718 8.74057 11.157 8.73824 11.1424C8.73591 11.1279 8.72909 11.1145 8.71875 11.1041ZM9.28125 6.89589L11.1048 8.71874C11.1152 8.72924 11.1287 8.73618 11.1432 8.7386C11.1578 8.74101 11.1728 8.73877 11.186 8.73219C11.1992 8.72561 11.2101 8.71503 11.2169 8.70195C11.2238 8.68887 11.2264 8.67396 11.2243 8.65933C11.151 8.18632 10.9291 7.74892 10.5906 7.41046C10.2521 7.07199 9.81472 6.85003 9.34171 6.77671C9.32707 6.77445 9.31208 6.77688 9.29889 6.78365C9.28571 6.79041 9.275 6.80117 9.26829 6.81439C9.26158 6.82761 9.25923 6.8426 9.26155 6.85724C9.26388 6.87188 9.27077 6.88541 9.28125 6.89589V6.89589Z" fill="#7C859B"/>
<path d="M17.2617 9.61031C17.3781 9.42763 17.4396 9.21539 17.439 8.99878C17.4384 8.78217 17.3756 8.57029 17.2582 8.38828C16.328 6.94969 15.1211 5.72766 13.7682 4.85402C12.2695 3.88652 10.6172 3.375 8.98875 3.375C8.13027 3.37618 7.27763 3.51615 6.46383 3.78949C6.44105 3.79707 6.42059 3.81035 6.4044 3.82807C6.38821 3.84579 6.37682 3.86736 6.37132 3.89072C6.36582 3.91409 6.3664 3.93847 6.37299 3.96155C6.37958 3.98463 6.39197 4.00564 6.40898 4.02258L8.06976 5.68336C8.08702 5.70064 8.10847 5.71314 8.13202 5.71961C8.15557 5.72608 8.1804 5.72631 8.20406 5.72027C8.767 5.58309 9.35578 5.59314 9.91371 5.74946C10.4716 5.90579 10.9799 6.20312 11.3896 6.61282C11.7993 7.02253 12.0967 7.53082 12.253 8.08875C12.4093 8.64668 12.4194 9.23546 12.2822 9.7984C12.2762 9.82201 12.2765 9.84677 12.2829 9.87025C12.2894 9.89373 12.3019 9.91513 12.3191 9.93234L14.708 12.323C14.7328 12.3479 14.7661 12.3625 14.8012 12.3641C14.8364 12.3657 14.8708 12.354 14.8978 12.3314C15.8174 11.5476 16.6142 10.6304 17.2617 9.61031ZM9 12.375C8.48909 12.375 7.98484 12.2591 7.52527 12.0358C7.0657 11.8126 6.66281 11.488 6.34697 11.0864C6.03113 10.6848 5.81058 10.2168 5.70196 9.71753C5.59334 9.2183 5.59948 8.70093 5.71992 8.20441C5.72589 8.1808 5.72563 8.15604 5.71916 8.13256C5.71269 8.10908 5.70023 8.08769 5.68301 8.07047L3.33316 5.71957C3.30825 5.69462 3.27487 5.67995 3.23964 5.67845C3.20441 5.67695 3.16991 5.68874 3.14297 5.71148C2.28551 6.44309 1.49062 7.33324 0.763943 8.37352C0.636743 8.55608 0.566688 8.77235 0.562682 8.99482C0.558676 9.2173 0.620898 9.43594 0.741443 9.62297C1.66992 11.076 2.86453 12.2998 4.1966 13.1614C5.69742 14.1328 7.30969 14.625 8.98875 14.625C9.85589 14.6227 10.7174 14.4857 11.5425 14.2189C11.5655 14.2116 11.5862 14.1985 11.6026 14.1808C11.6191 14.1632 11.6307 14.1416 11.6364 14.1181C11.6421 14.0947 11.6416 14.0702 11.6351 14.0469C11.6286 14.0237 11.6162 14.0026 11.5991 13.9855L9.93023 12.317C9.91301 12.2998 9.89162 12.2873 9.86814 12.2808C9.84466 12.2744 9.8199 12.2741 9.79629 12.2801C9.53557 12.3433 9.26826 12.3751 9 12.375V12.375Z" fill="#7C859B"/>
</svg>
