<svg width="151" height="29" viewBox="0 0 151 29" fill="none" xmlns="http://www.w3.org/2000/svg">
<path d="M147.793 22.4205V5.58734H150.753V22.4205H147.793Z" fill="#F47521"/>
<path d="M141.4 22.4205V5.58734H144.361V22.4205H141.4Z" fill="#F47521"/>
<path d="M138.908 16.3422C138.908 20.3946 136.883 22.5767 133.143 22.5767C129.403 22.5767 127.378 20.3946 127.378 16.3422C127.378 12.2897 129.403 10.1077 133.143 10.1077C136.883 10.1077 138.908 12.2897 138.908 16.3422ZM136.103 16.3422C136.103 13.0691 135.013 12.4456 133.299 12.4456C131.585 12.4456 130.494 13.0691 130.494 16.3422C130.494 19.6153 131.585 20.2388 133.299 20.2388C134.857 20.2388 136.103 19.6153 136.103 16.3422Z" fill="#F47521"/>
<path d="M126.136 10.1044V12.5983C124.578 12.5983 122.708 12.5982 122.708 13.3776V22.4176H119.747V11.6631C119.903 9.79272 126.136 10.1044 126.136 10.1044Z" fill="#F47521"/>
<path d="M108.371 27.2558C110.553 21.8006 110.397 22.2682 110.553 21.8006L106.19 10.2667H109.306L112.111 18.6833L114.76 10.2667H117.877L113.202 22.7358L111.488 27.2558H108.371Z" fill="#F47521"/>
<path d="M104.471 15.095V22.4205H101.511V14.9391C101.511 13.8481 101.199 12.757 98.5501 12.757C97.8642 12.7725 97.1832 12.8773 96.5244 13.0688V22.4205H93.5638V5.58734H96.5244V10.4191C97.3121 10.0853 98.1625 9.92579 99.0175 9.9515C102.601 10.1074 104.471 11.9777 104.471 15.095Z" fill="#F47521"/>
<path d="M88.1129 20.0798C89.1781 20.0382 90.23 19.8278 91.2293 19.4563V21.9501C90.0922 22.4094 88.8707 22.6219 87.6454 22.5736C83.9057 22.5736 81.8801 20.3915 81.8801 16.3391C81.8801 12.2866 83.9057 9.94867 87.6454 9.94867C88.863 9.991 90.0689 10.2008 91.2293 10.5721V13.0659C90.2344 12.6792 89.1799 12.4683 88.1129 12.4425C86.0872 12.4425 84.8406 13.0659 84.8406 16.1832C84.8406 19.4563 86.0872 20.0798 88.1129 20.0798Z" fill="#F47521"/>
<path d="M80.0117 14.7804V22.4177H77.207V14.7804C77.207 13.6894 77.207 12.5983 74.7138 12.5983C73.9347 12.5983 72.3765 12.7542 72.3765 13.2218V22.4177H69.5718V12.2866C69.5718 10.2604 72.0649 9.94867 75.1813 9.94867C78.2977 10.1045 80.0117 11.3514 80.0117 14.7804Z" fill="#F47521"/>
<path d="M66.7661 10.2667V16.9688C66.7661 20.5537 65.5195 22.7358 61.3124 22.7358C57.1053 22.7358 56.0145 20.5537 56.0145 16.9688V10.2667H58.8193V17.2806C58.8193 19.3068 59.5984 19.9302 61.3124 19.9302C63.0264 19.9302 63.8055 19.3068 63.8055 17.2806V10.2667H66.7661Z" fill="#F47521"/>
<path d="M53.6715 10.1044V12.5983C52.1133 12.5983 50.2435 12.5982 50.2435 13.3776V22.4176H47.2829V11.6631C47.4387 9.79272 53.6715 10.1044 53.6715 10.1044Z" fill="#F47521"/>
<path d="M41.5222 20.0798C42.5389 20.055 43.5424 19.8437 44.4828 19.4563V21.9501C43.3458 22.4094 42.1242 22.6219 40.899 22.5736C37.1593 22.5736 35.1336 20.3915 35.1336 16.3391C35.1336 12.2866 37.1593 9.94867 40.899 9.94867C42.1165 9.991 43.3225 10.2008 44.4828 10.5721V13.0659C43.5376 12.6945 42.5369 12.4838 41.5222 12.4425C39.4966 12.4425 38.25 13.0659 38.25 16.1832C38.0942 19.4563 39.4966 20.0798 41.5222 20.0798Z" fill="#F47521"/>
<path d="M4.589 16.3322C4.59527 13.1468 5.83356 10.0874 8.04447 7.79485C10.2554 5.50228 13.2674 4.15438 16.4496 4.03351C19.6318 3.91263 22.7374 5.02815 25.1157 7.14639C27.4941 9.26464 28.9608 12.2213 29.2086 15.397V14.6177C29.2086 11.8433 28.3861 9.13119 26.8451 6.82435C25.3042 4.51751 23.1139 2.71955 20.5514 1.65783C17.9889 0.596108 15.1692 0.318309 12.4488 0.85957C9.7285 1.40083 7.2297 2.73684 5.26843 4.69865C3.30717 6.66045 1.97153 9.15994 1.43042 11.881C0.889308 14.6021 1.16703 17.4226 2.22845 19.9859C3.28988 22.5491 5.08735 24.7399 7.39355 26.2813C9.69975 27.8227 12.4111 28.6454 15.1848 28.6454H16.1197C13.0001 28.4242 10.0791 27.033 7.94113 24.7499C5.80315 22.4668 4.60592 19.4604 4.589 16.3322Z" fill="#F47521"/>
<path d="M23.6062 16.9529C22.5468 16.9576 21.5197 16.5882 20.7059 15.9098C19.8921 15.2313 19.3437 14.2874 19.1575 13.2442C18.9713 12.201 19.1591 11.1255 19.6878 10.2072C20.2166 9.28898 21.0524 8.58685 22.048 8.22455C20.6596 7.48084 19.1039 7.10523 17.5292 7.13351C15.5876 7.13351 13.6897 7.7094 12.0753 8.78837C10.461 9.86734 9.20278 11.4009 8.45978 13.1952C7.71678 14.9894 7.52238 16.9638 7.90115 18.8685C8.27993 20.7733 9.21488 22.523 10.5878 23.8962C11.9606 25.2695 13.7098 26.2047 15.6141 26.5836C17.5183 26.9625 19.4921 26.768 21.2859 26.0248C23.0796 25.2816 24.6128 24.023 25.6914 22.4082C26.7701 20.7934 27.3458 18.895 27.3458 16.9529C27.3715 16.3254 27.3191 15.6971 27.19 15.0825C26.8133 15.6852 26.2824 16.1764 25.6524 16.5052C25.0223 16.834 24.3159 16.9886 23.6062 16.9529H23.6062Z" fill="#F47521"/>
</svg>
