<svg width="25" height="25" viewBox="0 0 25 25" fill="none" xmlns="http://www.w3.org/2000/svg">
<path d="M6.73439 21.125C6.44659 21.1244 6.16388 21.049 5.91408 20.9061C5.35158 20.5873 5.00189 19.9686 5.00189 19.2968V5.70309C5.00189 5.02949 5.35158 4.41262 5.91408 4.09387C6.16983 3.94688 6.46037 3.8713 6.75532 3.87501C7.05028 3.87872 7.33883 3.96159 7.5908 4.11496L19.2088 11.0693C19.4509 11.2212 19.6505 11.432 19.7889 11.6821C19.9272 11.9321 19.9998 12.2132 19.9998 12.499C19.9998 12.7848 19.9272 13.0659 19.7889 13.316C19.6505 13.5661 19.4509 13.7769 19.2088 13.9287L7.58892 20.885C7.33106 21.0409 7.03571 21.1238 6.73439 21.125Z" fill="black"/>
</svg>
