<svg width="36" height="36" viewBox="0 0 36 36" fill="none" xmlns="http://www.w3.org/2000/svg">
<circle cx="18" cy="18" r="18" fill="#F47521"/>
<path d="M20.6944 10.2704C20.0103 9.53176 19.0547 9.125 18 9.125C16.9397 9.125 15.981 9.5293 15.3 10.2634C14.6117 11.0055 14.2763 12.0141 14.355 13.1033C14.5111 15.252 16.1462 17 18 17C19.8538 17 21.4861 15.2524 21.6447 13.104C21.7245 12.0247 21.387 11.0182 20.6944 10.2704ZM24.1875 24.875H11.8125C11.6505 24.8771 11.4901 24.8431 11.343 24.7754C11.1958 24.7077 11.0656 24.6081 10.9617 24.4837C10.7332 24.2105 10.6411 23.8375 10.7093 23.4603C11.006 21.8143 11.932 20.4316 13.3875 19.4609C14.6806 18.5993 16.3185 18.125 18 18.125C19.6815 18.125 21.3195 18.5996 22.6125 19.4609C24.068 20.4312 24.994 21.8139 25.2907 23.46C25.3589 23.8372 25.2668 24.2102 25.0383 24.4834C24.9345 24.6078 24.8043 24.7075 24.6571 24.7752C24.51 24.843 24.3495 24.8771 24.1875 24.875Z" fill="white"/>
</svg>
